<svg width="32" height="32" viewBox="0 0 2048 2048" fill="none" xmlns="http://www.w3.org/2000/svg">
<rect width="2048" height="2048" rx="460" fill="#1D1D1F"/>
<path fill-rule="evenodd" clip-rule="evenodd" d="M1089.2 525.7C1108.8 530.6 1121.6 537.7 1135.6 551.5C1146 561.8 1152.1 570.6 1156.2 581.2C1166.8 608.8 1165.9 640 1153.6 666.5C1145.9 683.2 1136.1 694.6 1115.1 711.4C1099.2 724.1 1081.5 738.6 1046.5 767.3C988.7 814.8 925.8 872.3 894.1 906.5C852.1 951.9 831.7 980.5 808.2 1027.6C802.2 1039.7 794.4 1053.8 790.9 1059C775.8 1081.5 752 1098.5 725.3 1105.8C716.3 1108.2 713.9 1108.4 695.5 1108.4C676.7 1108.5 674.9 1108.3 665.5 1105.7C647.2 1100.7 630.3 1091.3 618.2 1079.6C601.1 1063.1 591.2 1044.7 585.9 1019.8C583 1006.3 582.8 980.7 585.4 968.5C589.1 951.7 594.6 939.7 604.8 926C614.3 913.3 613.2 914.2 681 858.8C704.9 839.2 738.2 811.8 755 798C771.8 784.1 796.5 763.7 810 752.7C853.3 717.2 874 699.9 874 699.1C874 698.7 757.5 698.6 615 698.8L356.1 699.2L355.4 696.6C355.1 695.1 355 691.4 355.3 688.2C355.7 685.1 355.9 646.6 356 602.7V523L718.3 523.3L1080.5 523.6L1089.2 525.7ZM1193.9 908.5C1200.85 909.522 1207.74 910.839 1214.57 912.457C1250.64 920.993 1285.25 937.91 1320.47 964.169C1324.27 967.004 1328.08 969.947 1331.9 973C1361.4 996.6 1393.4 1024.9 1438 1067C1476.3 1103.1 1493.7 1118.4 1529 1146.7C1579.8 1187.3 1616.9 1211 1691 1250.2C1730.3 1271 1741.6 1278.3 1756.4 1292C1775.1 1309.5 1789.6 1337.3 1794.6 1365C1796.7 1376.8 1797 1400.5 1795.1 1411C1789.9 1440.4 1773.7 1469.2 1752 1487.8C1731.9 1505 1709.5 1515.5 1685 1519.5C1679.6 1520.3 1669.1 1521 1660.4 1521C1636.4 1521 1620 1517.4 1601.9 1508.2C1582.2 1498.2 1568.9 1487.8 1556.3 1472.7C1545.2 1459.3 1539.6 1450.2 1527.2 1425C1487 1343.6 1445.4 1274.7 1407.3 1226.7C1380.1 1192.5 1340.2 1151.9 1309.3 1127C1285 1107.3 1254.4 1092 1230.3 1087.4C1218.2 1085.1 1201 1085.5 1189.6 1088.4C1161.6 1095.5 1144.5 1113.3 1137.3 1142.8C1135.4 1150.7 1135.1 1169.9 1136.4 1201.5C1137.7 1232.1 1134.7 1259.9 1127 1289.4C1112.9 1343.5 1079.7 1393.5 1032.5 1431.6C1010.1 1449.7 994.4 1459.8 965.5 1474.6C941.5 1487 927.8 1492.7 901.5 1501.5C860.1 1515.4 817.9 1524 769 1528.7C740.4 1531.4 676.3 1531.1 646 1528.1C539.7 1517.7 453.9 1488.4 374.6 1435.5C329.7 1405.7 287.5 1363.7 258.1 1319.6C254.1 1313.7 251.2 1308.4 251.7 1308C252.1 1307.6 279.3 1290.3 312 1269.5C344.7 1248.7 381.4 1225.3 393.5 1217.5C420.6 1200.1 423 1198.7 423.5 1199.2C423.8 1199.5 428 1205.7 432.8 1213.1C443.9 1229.9 451.7 1239.7 464.4 1252.9C522 1312.3 608.1 1345.3 705 1345.3C782.3 1345.3 846.3 1324.6 883.1 1287.8C896.7 1274.2 905.9 1259.4 912 1241.2C916.2 1228.7 917.7 1218.2 920 1186.5C921.1 1171.1 922.5 1154.9 923.1 1150.5C930.2 1095.8 945.8 1050.1 969.8 1013.5C1004 961.3 1058.8 924.5 1121.1 912C1129.3 910.3 1139.2 908.6 1143.2 908.1C1155.8 906.6 1182.4 906.9 1193.9 908.5ZM1741.5 555.1C1722.5 535.3 1701.4 523.6 1674.5 517.8C1662.4 515.2 1634.8 514.5 1623 516.5C1588.9 522.1 1558 540.6 1537.9 567.3C1530.6 576.9 1517.7 598.6 1499.5 631.5C1456.5 709.5 1439 754.5 1405.8 784.5C1391.19 804.168 1307.52 855.32 1253.33 888.452C1236.67 898.634 1222.8 907.115 1214.57 912.457C1250.64 920.993 1285.25 937.91 1320.47 964.169C1386.14 932.51 1466.81 890.283 1506 867C1588.8 817.7 1616 803.5 1665.5 783.5C1676 779.3 1690.8 772.8 1698.5 769C1743.3 747.3 1769.8 712.7 1777 666.5C1778.6 656.3 1778.3 634.7 1776.5 623.8C1772 597.8 1760.2 574.7 1741.5 555.1Z" fill="white"/>
</svg>
